<?xml version="1.0" encoding="UTF-8" standalone="no"?>
<svg
   version="1.1"
   id="Layer_1"
   x="0px"
   y="0px"
   width="100%"
   viewBox="0 0 332 577"
   enable-background="new 0 0 332 577"
   xml:space="preserve"
   sodipodi:docname="Clipboard2.svg"
   inkscape:version="1.4.2 (f4327f4, 2025-05-13)"
   inkscape:export-filename="Clipboard2.png"
   inkscape:export-xdpi="200"
   inkscape:export-ydpi="200"
   xmlns:inkscape="http://www.inkscape.org/namespaces/inkscape"
   xmlns:sodipodi="http://sodipodi.sourceforge.net/DTD/sodipodi-0.dtd"
   xmlns="http://www.w3.org/2000/svg"
   xmlns:svg="http://www.w3.org/2000/svg"><defs
   id="defs66" /><sodipodi:namedview
   id="namedview66"
   pagecolor="#ffffff"
   bordercolor="#000000"
   borderopacity="0.25"
   inkscape:showpageshadow="2"
   inkscape:pageopacity="0.0"
   inkscape:pagecheckerboard="0"
   inkscape:deskcolor="#d1d1d1"
   inkscape:zoom="5.5445999"
   inkscape:cx="36.161311"
   inkscape:cy="398.49584"
   inkscape:window-width="1920"
   inkscape:window-height="1057"
   inkscape:window-x="-8"
   inkscape:window-y="-8"
   inkscape:window-maximized="1"
   inkscape:current-layer="Layer_1" />
<path
   fill="#000000"
   opacity="1.000000"
   stroke="none"
   d=" M114.000000,1.000000   C186.956100,1.000000 259.912201,1.000000 333.000000,1.000000   C333.000000,167.355957 333.000000,333.711945 332.759888,500.871460   C329.024414,496.852966 325.408844,492.112793 322.058563,487.191986   C315.002808,476.828613 308.086151,466.370575 301.055603,455.576538   C298.105377,448.712250 295.221558,442.218597 292.316528,435.734375   C286.832123,423.492737 281.335541,411.256531 275.782776,398.636353   C270.762726,378.842773 265.803925,359.430969 260.910522,339.590057   C260.650482,336.580200 260.187469,334.008148 260.023254,331.417145   C259.295837,319.939728 258.775543,308.447968 257.929962,296.979828   C257.511322,291.301666 256.550934,285.663391 255.902557,279.542236   C256.178192,261.473724 256.436981,243.870483 256.573334,226.266296   C256.636200,218.150314 256.406281,210.032516 256.400909,201.915497   C256.379150,169.164200 256.364166,136.412811 256.445892,103.661713   C256.452881,100.865334 255.868484,98.835854 253.041916,97.472504   C253.057785,93.749847 253.517883,90.483765 248.898438,89.399666   C240.575211,87.446327 232.347443,85.086334 224.052887,82.438614   C224.017319,80.165840 223.715378,78.293907 224.053741,76.545891   C225.168503,70.786743 222.696167,68.179138 217.105484,67.454659   C214.951157,67.175491 212.936966,65.814720 210.919235,64.482941   C210.986206,57.200394 211.080170,50.380096 210.957977,43.563675   C210.906769,40.707409 210.397232,37.859360 209.872772,34.711182   C208.242126,33.939571 206.836304,33.459824 205.427216,32.989830   C176.431534,23.318556 147.428146,13.670153 118.458832,3.920549   C116.829468,3.372186 115.479828,1.992669 114.000000,1.000000  z"
   id="path1"
   style="fill:#000000;fill-opacity:0" />
<path
   fill="#AEAEAE"
   opacity="1.000000"
   stroke="none"
   d=" M301.112427,455.951416   C308.086151,466.370575 315.002808,476.828613 322.058563,487.191986   C325.408844,492.112793 329.024414,496.852966 332.759888,501.337463   C333.000000,502.388885 333.000000,503.777802 332.607788,505.514740   C331.409637,506.036682 330.578125,506.134644 329.801331,506.395386   C287.582458,520.569153 245.356064,534.720642 203.159546,548.960693   C186.627884,554.539612 170.164169,560.319946 153.459518,566.081055   C149.915741,559.691833 146.440613,553.426331 142.945847,546.789978   C139.961243,540.944885 136.996277,535.470642 134.005600,529.628418   C131.310577,524.387451 128.641266,519.514465 125.950302,514.301392   C124.004700,509.645569 122.080750,505.329773 120.552025,501.000671   C125.922264,499.670319 130.880432,498.285339 135.875076,497.047485   C164.317810,489.998383 192.777603,483.017975 221.215256,475.948578   C247.858200,469.325287 274.480865,462.620392 301.112427,455.951416  M234.408569,519.997925   C231.767578,515.625610 229.126587,511.253326 226.343933,506.646484   C230.437973,505.431335 233.756241,504.446411 237.158676,503.436523   C228.731842,488.318542 231.930374,487.821686 218.581802,493.176666   C221.133789,497.613556 223.655411,501.997650 226.282272,506.564728   C213.910690,510.210388 202.095886,513.691956 190.068130,517.236328   C193.142044,522.504639 195.961945,527.337646 198.818115,532.232788   C211.016220,528.306030 222.837921,524.500427 234.408569,519.997925  M238.076324,504.227966   C239.870834,507.131866 241.916687,509.914429 243.392456,512.972168   C245.018311,516.340881 246.826950,517.590027 250.667938,516.078430   C256.170624,513.912842 261.910858,512.350952 267.560394,510.527832   C265.023438,506.243683 262.474304,501.938904 259.705475,497.263153   C263.028198,496.056519 266.084412,494.946625 269.185760,493.820343   C262.876007,480.307709 262.876007,480.307709 251.689835,483.961060   C254.108887,488.271881 256.495758,492.525360 258.983978,496.959442   C251.659409,499.243927 244.905182,501.350525 238.076324,504.227966  M295.023193,496.534546   C293.150024,493.776978 291.276855,491.019409 289.454681,488.336884   C282.881073,490.199371 276.590546,491.981659 269.991608,493.851318   C271.505493,496.640076 272.724182,499.042786 274.085480,501.361816   C277.565002,507.289551 277.843506,507.358643 284.689240,505.078430   C287.586823,504.113281 290.432007,502.806641 293.410095,502.312286   C297.443695,501.642700 297.332153,499.827423 295.023193,496.534546  z"
   id="path2" />
<path
   fill="#010100"
   opacity="1.000000"
   stroke="none"
   d=" M142.965485,547.160828   C146.440613,553.426331 149.915741,559.691833 153.459518,566.081055   C170.164169,560.319946 186.627884,554.539612 203.159546,548.960693   C245.356064,534.720642 287.582458,520.569153 329.801331,506.395386   C330.578125,506.134644 331.409637,506.036682 332.607788,505.931396   C333.000000,529.970032 333.000000,553.940125 333.000000,578.000000   C240.312454,578.000000 147.624893,578.000000 54.502144,577.638550   C55.639042,576.493286 57.149597,575.533997 58.794369,574.957458   C64.518646,572.950989 70.289383,571.077087 76.398224,569.065735   C82.435905,567.021973 88.117828,565.065247 93.888428,563.344238   C94.246284,563.387329 94.515472,563.194641 95.075775,562.784546   C100.177841,561.080933 104.988792,559.594727 109.888412,558.344238   C110.246590,558.387329 110.516106,558.194641 111.078140,557.786194   C116.180351,556.083130 120.990044,554.595825 125.888412,553.344238   C126.246590,553.387329 126.516083,553.194641 127.077057,552.786560   C131.178940,551.416931 134.989349,550.262756 138.888428,549.344238   C139.246643,549.387329 139.516190,549.194641 140.054596,548.801147   C141.204117,548.120483 142.084793,547.640625 142.965485,547.160828  z"
   id="path3"
   style="fill:#010100;fill-opacity:0" />
<path
   fill="#6D5D1B"
   opacity="1.000000"
   stroke="none"
   d=" M113.550018,1.000000   C115.479828,1.992669 116.829468,3.372186 118.458832,3.920549   C147.428146,13.670153 176.431534,23.318556 205.427216,32.989830   C206.836304,33.459824 208.242126,33.939571 209.836731,35.178722   C210.015930,41.071857 209.894058,46.204159 210.033875,51.329323   C210.157791,55.872585 210.572556,60.407917 210.858917,64.946747   C212.936966,65.814720 214.951157,67.175491 217.105484,67.454659   C222.696167,68.179138 225.168503,70.786743 224.053741,76.545891   C223.715378,78.293907 224.017319,80.165840 224.023819,82.894882   C224.024979,86.251122 224.028290,88.693497 224.000610,91.595032   C223.945602,96.217529 223.914963,100.380844 223.899063,104.544205   C223.872284,111.553909 223.570587,111.825920 216.874023,110.257210   C188.064133,103.508278 159.253113,96.763847 130.454193,89.968307   C120.147392,87.536263 121.351242,89.139488 121.203957,78.433319   C121.140305,73.806160 122.343414,68.103897 120.105911,64.876244   C118.066742,61.934685 112.152512,61.679436 108.180183,59.903687   C109.818146,52.393196 109.322815,51.767330 102.408585,49.832901   C95.871254,48.003918 89.414085,45.888443 82.948227,43.438313   C82.983612,33.394066 83.098030,23.808676 82.934700,14.228023   C82.887726,11.472866 83.769676,10.091296 86.372688,9.260899   C91.362839,7.668968 96.310379,5.916271 101.178116,3.984603   C102.619835,3.412480 103.735123,2.017768 105.000000,1.000000   C107.700012,1.000000 110.400032,1.000000 113.550018,1.000000  M159.683105,39.794735   C151.157776,37.251167 142.632446,34.707596 134.145798,32.175571   C131.291183,40.108749 132.197800,42.196579 139.223801,44.263847   C148.612015,47.026161 158.203751,49.210873 167.379166,52.547981   C175.357620,55.449745 181.665649,51.163078 188.777847,48.860950   C179.335068,45.915119 169.892273,42.969288 159.683105,39.794735  z"
   id="path4" />
<path
   fill="#523413"
   opacity="1.000000"
   stroke="none"
   d=" M82.921654,43.898972   C89.414085,45.888443 95.871254,48.003918 102.408585,49.832901   C109.322815,51.767330 109.818146,52.393196 107.780182,59.832527   C95.880890,57.297787 84.615501,54.497734 72.904434,51.687031   C68.673096,52.809444 64.887444,53.942513 60.999847,55.106091   C60.999847,57.546272 60.999844,59.537174 60.999844,61.528072   C60.999851,227.439529 60.999821,393.350983 61.000366,559.262451   C61.000370,560.595032 60.762447,561.991333 61.086216,563.241089   C61.370632,564.339050 62.071301,565.826477 62.966290,566.177429   C65.858177,567.311340 68.924370,568.000732 72.336739,568.901428   C73.847549,569.011780 74.945007,569.082275 76.042465,569.152771   C70.289383,571.077087 64.518646,572.950989 58.794369,574.957458   C57.149597,575.533997 55.639042,576.493286 54.033485,577.638550   C52.285641,578.000000 50.571285,578.000000 48.434738,577.531372   C48.014725,525.715637 48.016903,474.368439 48.253151,422.677795   C48.650322,421.530151 48.954037,420.726257 48.955723,419.921692   C48.988651,404.207123 49.008228,388.492432 48.949818,372.778076   C48.945156,371.524261 48.351917,370.272614 48.032585,369.004913   C48.032970,368.989868 48.019478,368.962891 48.020798,368.498596   C48.013821,362.023376 48.005524,356.012451 48.005196,349.532776   C48.008369,279.709198 48.003574,210.354324 48.008171,140.559906   C47.998585,138.068024 47.979599,136.015671 47.968613,133.732941   C47.976612,133.502563 47.950302,133.042282 48.117851,132.656860   C48.523415,130.307327 49.006508,128.337158 48.957962,126.380157   C48.719242,116.757713 48.127178,107.140411 48.052971,97.518265   C47.892612,76.725296 47.972282,55.930489 48.353844,35.109390   C60.143169,38.021221 71.532410,40.960098 82.921654,43.898972  z"
   id="path5" />
<path
   fill="#6D4519"
   opacity="1.000000"
   stroke="none"
   d=" M48.019081,423.021240   C48.016903,474.368439 48.014725,525.715637 48.006275,577.531372   C46.933331,578.000000 45.866661,578.000000 44.424011,577.629272   C38.029537,574.677856 32.106728,571.829895 25.953077,569.626709   C22.768639,568.486633 22.079672,566.728516 22.091526,563.729797   C22.184872,540.114197 22.170006,516.498108 22.400322,492.538696   C22.738283,491.378510 22.974855,490.561829 22.974411,489.745239   C22.961414,465.806396 22.924816,441.867554 22.934484,417.465027   C22.868595,401.760040 22.760208,386.518707 23.113991,371.219604   C31.723932,370.428802 39.871708,369.695862 48.019478,368.962891   C48.019478,368.962891 48.032970,368.989868 48.023300,369.471069   C48.015450,387.641937 48.017265,405.331573 48.019081,423.021240  z"
   id="path6" />
<path
   fill="#000000"
   opacity="1.000000"
   stroke="none"
   d=" M82.948227,43.438313   C71.532410,40.960098 60.143169,38.021221 47.979435,35.100784   C39.106247,38.084305 31.007549,41.049389 22.539635,44.234329   C22.132448,57.929741 22.094479,71.405304 21.980659,85.244614   C19.922478,90.667892 17.940147,95.727417 15.661057,100.991562   C11.566191,109.499191 7.821259,117.827423 3.909825,126.076706   C3.354564,127.247765 1.989995,128.035080 1.000001,129.000000   C1.000000,86.413925 1.000000,43.827854 1.000000,1.000000   C35.353851,1.000000 69.708267,1.000000 104.531342,1.000000   C103.735123,2.017768 102.619835,3.412480 101.178116,3.984603   C96.310379,5.916271 91.362839,7.668968 86.372688,9.260899   C83.769676,10.091296 82.887726,11.472866 82.934700,14.228023   C83.098030,23.808676 82.983612,33.394066 82.948227,43.438313  z"
   id="path7"
   style="fill:#000000;fill-opacity:0" />
<path
   fill="#000000"
   opacity="1.000000"
   stroke="none"
   d=" M22.188457,492.882202   C22.170006,516.498108 22.184872,540.114197 22.091526,563.729797   C22.079672,566.728516 22.768639,568.486633 25.953077,569.626709   C32.106728,571.829895 38.029537,574.677856 44.024017,577.629272   C29.691689,578.000000 15.383379,578.000000 1.000000,578.000000   C1.000000,508.979126 1.000000,439.958221 1.453503,370.468658   C8.257860,370.625885 14.608716,371.251801 21.191576,371.950134   C21.423582,372.022552 21.902817,372.103821 21.943165,372.563049   C22.042662,388.011627 22.101814,403.000977 22.100185,418.456116   C22.089088,443.575348 22.138773,468.228760 22.188457,492.882202  z"
   id="path8"
   style="fill:#000000;fill-opacity:0" />
<path
   fill="#3E250A"
   opacity="1.000000"
   stroke="none"
   d=" M1.000000,350.000000   C1.000000,280.645782 1.000000,211.291550 1.401482,141.455902   C8.219452,139.684311 14.635942,138.394135 21.040257,137.564972   C21.036060,209.317123 21.044035,280.608246 20.656643,351.771912   C13.840849,351.096313 7.420425,350.548157 1.000000,350.000000  z"
   id="path9" />
<path
   fill="#9E7548"
   opacity="1.000000"
   stroke="none"
   d=" M1.000001,129.416656   C1.989995,128.035080 3.354564,127.247765 3.909825,126.076706   C7.821259,117.827423 11.566191,109.499191 16.024036,100.942703   C18.773048,100.174522 20.862320,99.659813 22.969814,99.599289   C22.347906,110.050133 21.707775,120.046776 21.042603,130.029205   C21.017563,130.014999 20.970961,129.981171 20.544052,129.985077   C13.744762,131.326004 7.372380,132.662994 0.999999,134.000000   C1.000000,132.611115 1.000000,131.222214 1.000001,129.416656  z"
   id="path10" />
<path
   fill="#A73D2A"
   opacity="1.000000"
   stroke="none"
   d=" M1.000000,350.468384   C7.420425,350.548157 13.840849,351.096313 20.621609,351.813995   C20.981945,351.983490 20.944145,352.086212 20.965412,352.547607   C20.977642,359.298584 20.968605,365.588165 20.959570,371.877716   C14.608716,371.251801 8.257860,370.625885 1.453503,370.000000   C1.000000,363.645599 1.000000,357.291199 1.000000,350.468384  z"
   id="path11" />
<path
   fill="#916B42"
   opacity="1.000000"
   stroke="none"
   d=" M0.999999,134.437500   C7.372380,132.662994 13.744762,131.326004 20.561529,130.419922   C20.984346,132.870285 20.962778,134.889740 20.959059,136.963562   C20.976908,137.017929 21.052431,137.103958 21.052431,137.103958   C14.635942,138.394135 8.219452,139.684311 1.401482,140.987244   C1.000000,138.958328 1.000000,136.916672 0.999999,134.437500  z"
   id="path12" />
<path
   fill="#7e7e7e"
   opacity="1"
   stroke="none"
   d="m 73.350113,51.697681 c 11.265388,2.800053 22.530777,5.600106 34.196157,8.471318 4.60624,1.510437 10.52047,1.765686 12.55964,4.707245 2.2375,3.227653 1.03439,8.929916 1.09805,13.557075 0.14728,10.706169 -1.05657,9.102944 9.25023,11.534988 28.79892,6.79554 57.60994,13.539973 86.41983,20.288903 6.69657,1.56871 6.99826,1.2967 7.02504,-5.713 0.0159,-4.16337 0.0465,-8.326681 0.47997,-12.906553 9.83317,1.808121 19.25696,4.032784 28.68074,6.257439 2.80871,0.940758 3.39311,2.970234 3.38612,5.766614 -0.0817,32.7511 -0.0667,65.50249 -0.045,98.25379 0.005,8.11702 0.23529,16.23481 0.17242,24.3508 -0.13635,17.60418 -0.39514,35.20742 -1.12002,53.27404 -9.13252,0.12854 -17.74689,-0.42468 -26.36562,-0.50372 -45.02284,-0.41309 -90.0468,-0.70453 -135.070295,-1.04657 -1.161255,-0.009 -2.322083,-0.16827 -3.482628,-0.16247 -6.427368,0.0321 -12.854591,0.0937 -19.334404,-0.31913 -0.07658,-2.79434 -0.125679,-5.12448 -0.121017,-7.45446 0.116302,-58.148 -0.77031,-116.30324 1.897972,-174.42941 0.670997,-14.617202 0.277237,-29.283279 0.372795,-43.926899 M 207.99016,182.11389 c 0.003,-1.15729 0.043,-2.31584 0.003,-3.47162 -0.13161,-3.77664 0.79242,-8.14908 -0.83701,-11.11097 -1.02528,-1.86373 -5.89138,-1.62429 -9.04289,-2.28841 -0.23091,-0.0486 -0.53021,0.22728 -1.1413,0.51289 0,4.96445 0.74562,10.16346 -0.12558,15.32106 -1.78559,-0.20694 -4.31791,-0.49418 -6.10221,-0.71187 -8.93895,-1.0905 -17.87725,-1.20199 -26.75866,-3.24529 0.004,-4.3169 -0.14993,-9.62592 0.0667,-13.9321 0.14365,-2.85604 -1.37613,-3.82375 -3.71428,-4.13785 -2.57539,-0.34601 -5.17235,-0.53128 -8.29396,-0.83925 0,5.63826 6.20352,16.69823 -0.86851,16.80072 -7.86074,-1.0565 -15.72146,-2.11301 -23.79431,-3.19803 0,6.06221 -0.50226,11.55684 0.40239,16.80911 0.1926,1.11815 5.47888,1.56656 8.46638,1.94944 5.09897,0.65345 10.23588,1.01084 15.69371,1.52429 0,-6.25003 -0.83509,-11.75664 0.003,-17.16018 3.74843,0.66349 8.33193,0.43224 12.05914,2.03327 v 16.72325 c 11.32634,1.31627 21.99672,2.55631 32.87092,3.82004 0,-5.73894 -0.79035,-11.89483 -0.0193,-17.01561 3.46925,0.59055 7.75869,0.95742 11.18423,2.4874 l -0.0298,15.86451 c 6.86244,0.80223 13.14073,1.53617 19.9731,2.33489 0,-4.77863 0.16897,-8.90877 -0.11316,-13.00788 -0.075,-1.08981 -1.4142,-2.84579 -2.37778,-2.9978 -5.81326,-0.91716 -11.79046,-0.48774 -17.60837,-2.09471 m -55.00142,60.90489 c 11.04964,0.66262 37.07258,-6.98391 33.12288,2.9253 v 15.8693 h 41.67707 v -14.90173 c -14.11023,-0.60982 -42.77696,4.14956 -41.69802,-2.96271 v -15.66078 c -11.59602,-0.8558 -22.5991,-1.66786 -33.93123,-2.5042 0,6.41138 4.02633,19.7552 -0.89837,17.25669 -7.86097,-0.44643 -15.72194,-0.89285 -23.82973,-1.35329 v 17.23415 c 8.29445,0.46481 16.27417,0.91198 24.62769,1.38012 0,-6.40443 -3.31054,-17.88988 0.92971,-17.28285 m -46.24044,-93.01132 c -6.3603,-1.08147 -12.720593,-2.16295 -19.319371,-3.28497 v 37.00529 c 8.910561,1.0609 17.504941,2.08414 26.391301,3.14215 v -35.62307 c -2.0861,-0.41086 -4.14028,-0.81542 -7.07193,-1.2394 m -19.64362,92.51936 v 15.16211 c 9.404114,0.41907 18.03887,0.80387 26.77585,1.19318 v -35.98552 c -8.8896,-0.67947 -17.605493,-1.34569 -26.77585,-2.04663 z"
   id="path13"
   sodipodi:nodetypes="ccssssscccssccsscssccsssccscsscccsscccccccccsccccccccccccccccccccccccccc" />
<path
   fill="#919191"
   opacity="1"
   stroke="none"
   d="m 260.84509,340.01913 c 4.95883,19.41184 9.91764,38.82364 14.52786,58.62238 -12.82803,2.35818 -25.30624,4.33716 -37.7871,6.29925 -33.66869,5.29297 -67.32955,10.63675 -101.01212,15.84009 -14.44962,2.23215 -28.9453,4.16623 -43.576278,5.86823 -1.120918,-5.10221 -2.085602,-9.83692 -3.158447,-14.94834 -2.28682,-10.88568 -4.538826,-21.38015 -6.622094,-31.90799 -1.826408,-9.22985 -3.46347,-18.49713 -4.720771,-27.7543 7.764076,-0.35147 15.070144,-0.60968 22.36416,-1.06219 10.60547,-0.65793 21.20511,-1.41754 31.80211,-2.20291 16.55227,-1.22678 33.09577,-2.57474 49.65158,-3.74991 11.59421,-0.82297 23.20415,-1.42197 34.80459,-2.15995 14.57682,-0.9273 29.15112,-1.8944 43.72651,-2.84436 m -74.61606,38.1157 c -15.5414,1.85285 -31.11261,3.58639 -47.02137,5.48303 1.40655,6.05932 2.70454,11.65085 4.07534,17.55615 16.12291,-2.19708 31.81038,-4.33481 47.73098,-6.5043 -1.39051,-5.70477 -3.68716,-11.30115 -4.15239,-16.76803 6.98503,-0.79041 14.92445,-1.49131 22.15643,-2.30964 -1.18863,-5.14126 -2.3493,-10.16159 -3.63541,-15.72449 -5.62283,0.37387 -11.33542,1.03824 -17.04808,1.03888 -4.18809,4.6e-4 -4.86653,2.0911 -4.18594,5.34235 0.83073,3.9686 2.73146,7.94148 2.85588,11.8264 m 55.77451,9.86665 c -0.90044,-5.3258 -1.80086,-10.65161 -2.67107,-15.7987 -10.84015,1.21505 -20.79428,2.33081 -30.94659,3.46878 1.43972,5.94616 2.70864,11.18689 3.88302,16.03711 10.18231,-1.28897 19.54225,-2.47385 29.73464,-3.70719 z"
   id="path14"
   sodipodi:nodetypes="ccssccscssssccccccccsscccccc" />
<path
   fill="#838383"
   opacity="1"
   stroke="none"
   d="m 260.91052,339.59006 c -14.64082,1.37903 -29.21512,2.34613 -43.79194,3.27343 -11.60044,0.73798 -23.21038,1.33698 -34.80459,2.15995 -16.55581,1.17517 -33.09931,2.52313 -49.65158,3.74991 -10.597,0.78537 -21.19664,1.54498 -31.80211,2.20291 -7.294016,0.45251 -14.600084,0.71072 -22.375132,0.80078 -0.478881,-0.42902 -0.483398,-0.60303 -0.496795,-1.19534 -0.336251,-3.806 -0.663628,-7.19373 -0.990486,-10.99814 1.68e-4,-1.80564 -1.83e-4,-3.19461 -0.0094,-5.00186 -0.336288,-3.80604 -0.663665,-7.19373 -0.990524,-11.03809 -0.673492,-13.00638 -1.27935,-25.56076 -2.131866,-38.09836 -0.08112,-1.19305 -1.705338,-2.28116 -2.673271,-3.82147 -0.02003,-1.48596 0.02005,-2.56851 0.06013,-3.65103 6.427269,-0.0515 12.854492,-0.11304 19.28186,-0.14517 1.160545,-0.006 2.321373,0.15365 3.482628,0.16247 45.023495,0.34204 90.047455,0.63348 135.070295,1.04657 8.61873,0.079 17.2331,0.63226 26.29872,0.9686 1.16452,5.65817 2.12491,11.29645 2.54355,16.97461 0.84558,11.46814 1.36588,22.9599 2.09329,34.43731 0.16422,2.59101 0.62723,5.16306 0.88727,8.17292 m -41.80554,-28.57849 h -30.09019 c 0,4.7612 -0.0982,8.89199 0.0355,13.01525 0.0851,2.6269 1.25554,4.19086 4.33142,4.0142 8.07829,-0.46399 16.18083,-0.56543 24.24144,-1.21305 1.21307,-0.0974 3.16969,-2.32663 3.20344,-3.6112 0.10715,-4.07724 -1.44248,-8.29347 -0.94366,-12.35093 3.00159,-0.51053 6.91282,-0.90173 10.38817,-1.49282 -0.54357,-4.83197 -1.06597,-9.4758 -1.58968,-14.1312 h -9.65086 c 0.35017,5.44736 1.66765,10.67645 1.05867,15.81448 m -54.10616,0.95548 c -11.96065,0.4599 -24.78621,0.9198 -35.9816,1.35025 0,4.6253 0.16913,8.88681 -0.0523,13.12796 -0.18481,3.53989 1.2585,4.78662 4.66767,4.53683 5.90539,-0.43276 11.82684,-0.64251 17.73498,-1.04284 4.84773,-0.32846 9.68591,-0.79788 14.72316,-1.22119 -0.40399,-6.00107 -1.72218,-11.43477 -1.14181,-16.80198 l 22.05334,0.0298 c 0,-4.69406 0.27802,-8.8313 -0.14847,-12.89459 -0.15245,-1.45236 -1.94299,-3.82868 -3.09865,-3.89786 -6.39314,-0.38248 -12.8211,-0.18314 -20.06047,-0.18314 0.486,6.04953 1.79251,11.54654 1.30414,16.99674 z"
   id="path15"
   sodipodi:nodetypes="csssscccccsccscscsscccsssscccccccscscccsccc" />
<path
   fill="#a0a0a0"
   opacity="1"
   stroke="none"
   d="m 93.153679,427.0166 c 14.474751,-2.06952 28.970431,-4.0036 43.420051,-6.23575 33.68257,-5.20334 67.34343,-10.54712 101.01212,-15.84009 12.48086,-1.96209 24.95907,-3.94107 37.84832,-5.91751 5.90137,12.23328 11.39795,24.46949 16.88236,36.71112 2.90503,6.48423 5.78885,12.97788 8.73907,19.84217 -26.57474,7.04385 -53.1974,13.74875 -79.84034,20.37204 -28.43766,7.06939 -56.89745,14.0498 -85.34018,21.0989 -4.99465,1.23786 -9.95282,2.62284 -15.5967,3.71439 -1.50793,-2.18109 -2.44188,-4.10202 -3.17077,-6.09787 -5.08327,-13.91846 -10.12405,-27.85245 -15.17669,-42.15259 -2.924572,-8.74569 -5.850911,-17.12027 -8.777241,-25.49481 m 92.589741,20.95029 c 7.94226,-1.65595 15.88019,-3.33301 23.82787,-4.96256 10.12535,-2.07599 20.25856,-4.11364 30.6445,-6.21975 -0.88869,-2.02073 -1.55229,-3.49073 -2.18408,-4.97425 -1.33225,-3.12832 -1.85637,-7.36386 -4.2128,-9.0592 -1.99881,-1.43808 -6.10649,0.0509 -9.28044,0.25354 -0.65731,0.042 -1.32152,0.0728 -1.96668,0.19351 -14.70738,2.75253 -29.41253,5.51694 -44.41437,8.33472 2.26943,5.43258 5.41809,11.07521 6.90031,16.58061 l -23.90053,4.91498 c 1.71327,4.81509 2.19474,9.0626 4.01727,13.19121 0.66794,1.51309 2.76277,3.72186 3.81807,3.52542 7.39509,-1.3765 14.68844,-3.29947 22.34408,-5.12632 -2.26495,-5.90048 -5.14422,-11.34823 -6.39846,-16.69665 m -36.34208,26.17148 c 1.72335,-0.40625 3.44667,-0.81253 5.24547,-1.2366 -4.51317,-11.77683 -8.91308,-23.25815 -13.31532,-34.74552 -9.01199,1.66748 -17.82419,3.29798 -26.94943,4.98642 4.38711,11.89139 8.35794,22.86276 12.58352,33.73514 0.36016,0.9267 2.53931,1.86145 3.6662,1.65594 6.06832,-1.10656 12.07108,-2.57248 18.76956,-4.39538 m 94.47695,-30.68546 c 0.98308,2.22946 1.74022,4.60544 3.04877,6.6239 0.61384,0.94684 2.42062,1.86863 3.46394,1.66425 5.71528,-1.11966 11.36143,-2.59213 17.04198,-3.94592 -1.62238,-4.13956 -2.92701,-8.36374 -4.97068,-12.19355 -0.708,-1.32678 -3.34729,-2.49356 -4.93475,-2.30502 -3.66573,0.43546 -7.20096,1.86499 -10.83769,2.67258 -5.84423,1.29776 -5.86083,1.22302 -2.81157,7.48376 z"
   id="path16"
   sodipodi:nodetypes="ccscscsscccccscsssccccssccccccssccsscsssc" />
<path
   fill="#523514"
   opacity="1.000000"
   stroke="none"
   d=" M253.041916,97.472504   C243.635986,95.670441 234.212204,93.445778 224.410019,91.178497   C224.028290,88.693497 224.024979,86.251122 224.050720,83.352478   C232.347443,85.086334 240.575211,87.446327 248.898438,89.399666   C253.517883,90.483765 253.057785,93.749847 253.041916,97.472504  z"
   id="path17" />
<path
   fill="#A7A7A7"
   opacity="1.000000"
   stroke="none"
   d=" M210.919220,64.482941   C210.572556,60.407917 210.157791,55.872585 210.033875,51.329323   C209.894058,46.204159 210.015930,41.071857 210.060028,35.475121   C210.397232,37.859360 210.906769,40.707409 210.957977,43.563675   C211.080170,50.380096 210.986206,57.200394 210.919220,64.482941  z"
   id="path18"
   style="fill:#a7a7a7;fill-opacity:0" />
<path
   fill="#7E7E7E"
   opacity="1.000000"
   stroke="none"
   d=" M101.929169,452.882538   C106.983559,466.811554 112.024345,480.745544 117.107605,494.664001   C117.836502,496.659851 118.770447,498.580780 119.883148,500.775177   C122.080750,505.329773 124.004700,509.645569 125.952751,514.792969   C125.976852,520.873840 125.976852,526.123169 125.976852,531.494934   C128.918213,530.947693 131.474777,530.472046 134.031311,529.996399   C136.996277,535.470642 139.961243,540.944885 142.945831,546.789978   C142.084793,547.640625 141.204117,548.120483 139.807465,548.820801   C139.291473,549.041382 138.799744,549.108521 138.799744,549.108521   C134.989349,550.262756 131.178940,551.416931 126.829964,552.806274   C126.291382,553.041382 125.799744,553.108521 125.799744,553.108521   C120.990044,554.595825 116.180351,556.083130 110.831039,557.805908   C110.291412,558.041382 109.799751,558.108521 109.799751,558.108521   C104.988792,559.594727 100.177841,561.080933 94.828903,562.804260   C94.290924,563.041382 93.799751,563.108521 93.799759,563.108521   C88.117828,565.065247 82.435905,567.021973 76.398224,569.065735   C74.945007,569.082275 73.847549,569.011780 72.327759,568.481445   C71.924271,566.058777 71.943108,564.095947 71.864113,561.934631   C71.614258,561.483521 71.427689,561.259705 71.179108,560.592773   C71.126961,558.956299 71.080757,557.791687 71.080711,556.627075   C71.076958,466.589294 71.075989,376.551483 71.083763,286.513702   C71.083893,285.018219 71.194054,283.522736 71.252876,282.027252   C72.160713,283.164093 73.784927,284.252197 73.866051,285.445251   C74.718567,297.982849 75.324425,310.537231 75.657135,323.708862   C72.910980,329.216217 73.453682,332.659668 76.997353,335.000000   C76.997704,336.388947 76.998055,337.777924 76.654190,339.751678   C73.842171,345.477722 74.417015,349.110718 77.997253,351.000000   C78.001770,351.174011 78.006287,351.348022 78.021774,351.783447   C79.753441,361.295624 81.390503,370.562897 83.216911,379.792755   C85.300179,390.320587 87.552185,400.815063 89.428818,411.654083   C88.082008,413.308380 86.245453,414.570709 86.136208,415.968079   C85.761063,420.766907 85.990295,425.613037 85.990074,430.441132   C85.989685,438.883362 85.989975,447.325562 85.989975,456.401825   C91.779495,455.123535 96.854332,454.003021 101.929169,452.882538  M88.166130,542.890198   C96.405251,540.424866 104.644371,537.959473 112.872566,535.497375   C112.872566,521.369202 112.872566,507.567749 112.872566,493.389191   C105.094948,495.266785 97.574715,497.391998 89.921341,498.786438   C86.582634,499.394745 85.936584,500.766510 85.960739,503.690918   C86.058411,515.513000 85.962196,527.336731 86.058098,539.158875   C86.068283,540.414917 86.868652,541.664551 88.166130,542.890198  z"
   id="path19" />
<path
   fill="#000000"
   opacity="1.000000"
   stroke="none"
   d=" M234.534088,520.346436   C222.837921,524.500427 211.016220,528.306030 198.818115,532.232788   C195.961945,527.337646 193.142044,522.504639 190.068130,517.236328   C202.095886,513.691956 213.910690,510.210388 226.282272,506.564728   C223.655411,501.997650 221.133789,497.613556 218.581802,493.176666   C231.930374,487.821686 228.731842,488.318542 237.158676,503.436523   C233.756241,504.446411 230.437973,505.431335 226.343933,506.646484   C229.126587,511.253326 231.767578,515.625610 234.534088,520.346436  z"
   id="path20" />
<path
   fill="#000000"
   opacity="1.000000"
   stroke="none"
   d=" M238.113647,503.842560   C244.905182,501.350525 251.659409,499.243927 258.983978,496.959442   C256.495758,492.525360 254.108887,488.271881 251.689835,483.961060   C262.876007,480.307709 262.876007,480.307709 269.185760,493.820343   C266.084412,494.946625 263.028198,496.056519 259.705475,497.263153   C262.474304,501.938904 265.023438,506.243683 267.560394,510.527832   C261.910858,512.350952 256.170624,513.912842 250.667938,516.078430   C246.826950,517.590027 245.018311,516.340881 243.392456,512.972168   C241.916687,509.914429 239.870834,507.131866 238.113647,503.842560  z"
   id="path21" />
<path
   fill="#000000"
   opacity="1.000000"
   stroke="none"
   d=" M295.288239,496.798584   C297.332153,499.827423 297.443695,501.642700 293.410095,502.312286   C290.432007,502.806641 287.586823,504.113281 284.689240,505.078430   C277.843506,507.358643 277.565002,507.289551 274.085480,501.361816   C272.724182,499.042786 271.505493,496.640076 269.991608,493.851318   C276.590546,491.981659 282.881073,490.199371 289.454681,488.336884   C291.276855,491.019409 293.150024,493.776978 295.288239,496.798584  z"
   id="path22" />
<path
   fill="#070604"
   opacity="1.000000"
   stroke="none"
   d=" M134.005615,529.628418   C131.474777,530.472046 128.918213,530.947693 125.976852,531.494934   C125.976852,526.123169 125.976852,520.873840 125.974411,515.132935   C128.641266,519.514465 131.310577,524.387451 134.005615,529.628418  z"
   id="path23" />
<path
   fill="#7E7E7D"
   opacity="1.000000"
   stroke="none"
   d=" M138.888428,549.344238   C138.799744,549.108521 139.291473,549.041382 139.538605,549.021667   C139.516190,549.194641 139.246643,549.387329 138.888428,549.344238  z"
   id="path24" />
<path
   fill="#7E7E7D"
   opacity="1.000000"
   stroke="none"
   d=" M125.888412,553.344238   C125.799744,553.108521 126.291382,553.041382 126.538483,553.021667   C126.516083,553.194641 126.246590,553.387329 125.888412,553.344238  z"
   id="path25" />
<path
   fill="#7E7E7D"
   opacity="1.000000"
   stroke="none"
   d=" M109.888412,558.344238   C109.799751,558.108521 110.291412,558.041382 110.538513,558.021667   C110.516106,558.194641 110.246590,558.387329 109.888412,558.344238  z"
   id="path26" />
<path
   fill="#7E7E7D"
   opacity="1.000000"
   stroke="none"
   d=" M93.888428,563.344238   C93.799751,563.108521 94.290924,563.041382 94.537796,563.021667   C94.515472,563.194641 94.246284,563.387329 93.888428,563.344238  z"
   id="path27" />
<path
   fill="#443A0F"
   opacity="1.000000"
   stroke="none"
   d=" M160.066299,39.909096   C169.892273,42.969288 179.335068,45.915119 188.777847,48.860950   C181.665649,51.163078 175.357620,55.449745 167.379166,52.547981   C158.203751,49.210873 148.612015,47.026161 139.223801,44.263847   C132.197800,42.196579 131.291183,40.108749 134.145798,32.175571   C142.632446,34.707596 151.157776,37.251167 160.066299,39.909096  z"
   id="path28" />
<path
   fill="#2E1C07"
   opacity="1.000000"
   stroke="none"
   d=" M21.016979,351.941406   C21.044035,280.608246 21.036060,209.317123 21.040257,137.564972   C21.052431,137.103958 20.976908,137.017929 21.388958,136.997253   C30.533598,138.317520 39.266190,139.658478 47.998779,140.999451   C48.003574,210.354324 48.008369,279.709198 47.548767,349.532837   C38.370964,350.696472 29.657555,351.391357 20.944145,352.086212   C20.944145,352.086212 20.981945,351.983490 21.016979,351.941406  z"
   id="path29" />
<path
   fill="#A8A8A8"
   opacity="1.000000"
   stroke="none"
   d=" M71.961945,562.133179   C71.943108,564.095947 71.924271,566.058777 71.914413,568.441528   C68.924370,568.000732 65.858177,567.311340 62.966290,566.177429   C62.071301,565.826477 61.370632,564.339050 61.086216,563.241089   C60.762447,561.991333 61.000370,560.595032 61.000366,559.262451   C60.999821,393.350983 60.999851,227.439529 60.999844,61.528072   C60.999844,59.537174 60.999847,57.546272 60.999847,55.106091   C64.887444,53.942513 68.673096,52.809444 72.904434,51.687031   C73.254555,66.341301 73.648315,81.007378 72.977318,95.624580   C70.309036,153.750748 71.195648,211.905991 71.079346,270.053986   C71.074684,272.383972 71.123779,274.714111 71.200363,277.508453   C71.212830,279.055267 71.172752,280.137817 71.192764,281.623779   C71.194054,283.522736 71.083893,285.018219 71.083763,286.513702   C71.075989,376.551483 71.076958,466.589294 71.080711,556.627075   C71.080757,557.791687 71.126961,558.956299 71.263107,560.795166   C71.528687,561.727600 71.724472,561.948792 71.961945,562.133179  z"
   id="path30" />
<path
   fill="#6D4519"
   opacity="1.000000"
   stroke="none"
   d=" M22.908854,44.014473   C31.007549,41.049389 39.106247,38.084305 47.579350,35.127827   C47.972282,55.930489 47.892612,76.725296 48.052971,97.518265   C48.127178,107.140411 48.719242,116.757713 48.957962,126.380157   C49.006508,128.337158 48.523415,130.307327 47.879227,132.638412   C47.473049,133.005402 46.994724,132.972366 46.997799,132.988434   C47.000874,133.004486 47.030987,132.991730 47.013474,132.602768   C42.348534,121.820763 37.701107,111.427719 33.043388,100.655479   C30.690350,94.888245 28.415747,89.468178 25.917572,84.153191   C25.609491,83.497742 24.109013,83.402733 23.092762,82.581467   C22.985905,69.414772 22.947378,56.714622 22.908854,44.014473  z"
   id="path31" />
<path
   fill="#7D2E1F"
   opacity="1.000000"
   stroke="none"
   d=" M20.965412,352.547607   C29.657555,351.391357 38.370964,350.696472 47.540802,350.001556   C48.005524,356.012451 48.013821,362.023376 48.020798,368.498627   C39.871708,369.695862 31.723932,370.428802 22.995253,371.363831   C22.289940,371.789032 22.119431,371.968353 21.902817,372.103821   C21.902817,372.103821 21.423582,372.022552 21.191576,371.950134   C20.968605,365.588165 20.977642,359.298584 20.965412,352.547607  z"
   id="path32" />
<path
   fill="#6D5032"
   opacity="1.000000"
   stroke="none"
   d=" M48.008171,140.559906   C39.266190,139.658478 30.533598,138.317520 21.371109,136.942871   C20.962778,134.889740 20.984346,132.870285 20.988438,130.416016   C20.970961,129.981171 21.017563,130.014999 21.475731,130.017700   C30.299593,131.010849 38.665291,132.001282 47.030987,132.991730   C47.030987,132.991730 47.000874,133.004486 47.135349,133.176117   C47.472046,133.584412 47.702309,133.789597 47.960617,133.963318   C47.979599,136.015671 47.998585,138.068024 48.008171,140.559906  z"
   id="path33" />
<path
   fill="#685138"
   opacity="1.000000"
   stroke="none"
   d=" M48.253151,422.677795   C48.017265,405.331573 48.015450,387.641937 48.022915,369.486115   C48.351917,370.272614 48.945156,371.524261 48.949818,372.778076   C49.008228,388.492432 48.988651,404.207123 48.955723,419.921692   C48.954037,420.726257 48.650322,421.530151 48.253151,422.677795  z"
   id="path34" />
<path
   fill="#7D5C39"
   opacity="1.000000"
   stroke="none"
   d=" M47.968613,133.732941   C47.702309,133.789597 47.472046,133.584412 47.132275,133.160065   C46.994724,132.972366 47.473049,133.005402 47.711678,133.023834   C47.950302,133.042282 47.976612,133.502563 47.968613,133.732941  z"
   id="path35" />
<path
   fill="#8F7C24"
   opacity="1.000000"
   stroke="none"
   d=" M22.400322,492.538696   C22.138773,468.228760 22.089088,443.575348 22.283161,418.443787   C22.526915,417.965668 22.891983,417.928711 22.891983,417.928711   C22.924816,441.867554 22.961414,465.806396 22.974411,489.745239   C22.974855,490.561829 22.738283,491.378510 22.400322,492.538696  z"
   id="path36" />
<path
   fill="#A7A6A6"
   opacity="1.000000"
   stroke="none"
   d=" M22.934483,417.465027   C22.891983,417.928711 22.526915,417.965668 22.343941,417.978027   C22.101814,403.000977 22.042662,388.011627 21.943165,372.563049   C22.119431,371.968353 22.289940,371.789032 22.533081,371.421661   C22.760208,386.518707 22.868595,401.760040 22.934483,417.465027  z"
   id="path37"
   style="fill:#a7a6a6;fill-opacity:0" />
<path
   fill="#170D03"
   opacity="1.000000"
   stroke="none"
   d=" M23.161089,83.048019   C24.109013,83.402733 25.609491,83.497742 25.917572,84.153191   C28.415747,89.468178 30.690350,94.888245 32.646469,100.616730   C29.157095,100.353157 26.054342,99.749130 22.951591,99.145103   C20.862320,99.659813 18.773048,100.174522 16.320797,100.738091   C17.940147,95.727417 19.922478,90.667892 22.278442,85.188889   C22.821745,84.195625 22.991417,83.621819 23.161089,83.048019  z"
   id="path38" />
<path
   fill="#A7A7A7"
   opacity="1.000000"
   stroke="none"
   d=" M23.092758,82.581467   C22.991417,83.621819 22.821745,84.195625 22.354290,84.825150   C22.094479,71.405304 22.132448,57.929741 22.539635,44.234325   C22.947378,56.714622 22.985905,69.414772 23.092758,82.581467  z"
   id="path39"
   style="fill:#a7a7a7;fill-opacity:0" />
<path
   fill="#7D5C39"
   opacity="1.000000"
   stroke="none"
   d=" M22.969814,99.599289   C26.054342,99.749130 29.157095,100.353157 32.656765,100.995926   C37.701107,111.427719 42.348534,121.820763 47.013474,132.602768   C38.665291,132.001282 30.299593,131.010849 21.500771,130.031921   C21.707775,120.046776 22.347906,110.050133 22.969814,99.599289  z"
   id="path40" />
<path
   fill="#000000"
   opacity="1.000000"
   stroke="none"
   d=" M107.082642,150.986481   C109.575562,151.400742 111.629738,151.805298 113.715836,152.216156   C113.715836,164.265274 113.715836,176.002136 113.715836,187.839233   C104.829475,186.781219 96.235100,185.757980 87.324539,184.697083   C87.324539,172.628555 87.324539,160.586563 87.324539,147.691788   C93.923317,148.813812 100.283615,149.895294 107.082642,150.986481  z"
   id="path41" />
<path
   fill="#000000"
   opacity="1.000000"
   stroke="none"
   d=" M87.000290,242.997040   C87.000290,235.880356 87.000290,229.262756 87.000290,221.819260   C96.170647,222.520203 104.886536,223.186417 113.776138,223.865891   C113.776138,236.099045 113.776138,247.677490 113.776138,259.851410   C105.039162,259.462097 96.404404,259.077301 87.000290,258.658234   C87.000290,253.652985 87.000290,248.574554 87.000290,242.997040  z"
   id="path42" />
<path
   fill="#000000"
   opacity="1.000000"
   stroke="none"
   d=" M185.934174,246.076599   C199.754120,246.673859 213.574066,247.271133 227.684296,247.880951   C227.684296,253.446014 227.684296,258.504120 227.684296,262.782684   C213.912643,262.782684 200.304077,262.782684 186.007233,262.782684   C186.007233,256.759857 186.007233,251.836624 185.995010,246.469025   C185.982788,246.024658 185.934174,246.076599 185.934174,246.076599  z"
   id="path43" />
<path
   fill="#000000"
   opacity="1.000000"
   stroke="none"
   d=" M152.055054,244.045242   C152.055054,238.604935 152.055054,233.164642 152.055054,226.753265   C163.387177,227.589600 174.390259,228.401657 185.986282,229.257462   C185.986282,234.648041 185.986282,239.888596 185.960236,245.602875   C185.934174,246.076599 185.982788,246.024658 186.008026,246.000275   C174.983612,245.313309 163.933990,244.650696 152.444000,243.992142   C152.003647,243.996201 152.055054,244.045242 152.055054,244.045242  z"
   id="path44" />
<path
   fill="#000000"
   opacity="1.000000"
   stroke="none"
   d=" M163.928146,177.084885   C172.866684,178.178772 181.804977,179.274475 190.743927,180.364975   C192.528229,180.582657 194.314926,180.780426 196.511566,180.939575   C196.922607,180.891785 196.876892,180.833603 196.876892,180.833603   C196.876892,186.303528 196.876892,191.773453 196.876892,197.512390   C186.002686,196.248657 175.332306,195.008621 164.005966,193.692352   C164.005966,188.451279 164.005966,183.187393 163.991211,177.478287   C163.976440,177.033081 163.928146,177.084885 163.928146,177.084885  z"
   id="path45" />
<path
   fill="#000000"
   opacity="1.000000"
   stroke="none"
   d=" M151.943359,174.952042   C151.943359,180.399017 151.943359,185.845978 151.943359,192.096008   C146.485535,191.582565 141.348618,191.225174 136.249649,190.571716   C133.262146,190.188843 127.975868,189.740433 127.783272,188.622284   C126.878616,183.370010 127.380882,177.875381 127.380882,171.813171   C135.453735,172.898193 143.314453,173.954697 151.584900,175.006287   C151.994614,175.001373 151.943359,174.952042 151.943359,174.952042  z"
   id="path46" />
<path
   fill="#000000"
   opacity="1.000000"
   stroke="none"
   d=" M151.979141,243.970459   C151.954636,249.405624 151.954636,254.866501 151.954636,261.270935   C143.601120,260.802795 135.621399,260.355621 127.326950,259.890808   C127.326950,254.264252 127.326950,248.890762 127.326950,242.656662   C135.434738,243.117096 143.295715,243.563522 151.605865,244.027588   C152.055054,244.045242 152.003647,243.996201 151.979141,243.970459  z"
   id="path47" />
<path
   fill="#000000"
   opacity="1.000000"
   stroke="none"
   d=" M207.955200,183.054749   C213.808075,183.720856 219.680878,184.260742 225.494141,185.177902   C226.457718,185.329910 227.796906,187.085892 227.871918,188.175705   C228.154053,192.274811 227.985077,196.404953 227.985077,201.183578   C221.152710,200.384857 214.874420,199.650925 208.011978,198.848694   C208.011978,193.771271 208.011978,188.832550 208.008087,183.448578   C208.004196,183.003326 207.955200,183.054749 207.955200,183.054749  z"
   id="path48" />
<path
   fill="#000000"
   opacity="1.000000"
   stroke="none"
   d=" M152.019165,175.027115   C152.043701,169.450806 152.043701,163.848740 152.043701,158.210480   C155.165314,158.518448 157.762268,158.703720 160.337662,159.049728   C162.675812,159.363831 164.195587,160.331543 164.051941,163.187576   C163.835342,167.493759 163.988998,171.818573 163.956711,176.610168   C163.928146,177.084885 163.976440,177.033081 164.001816,177.009521   C160.278763,176.322464 156.530350,175.658966 152.362640,174.973755   C151.943359,174.952042 151.994614,175.001373 152.019165,175.027115  z"
   id="path49" />
<path
   fill="#000000"
   opacity="1.000000"
   stroke="none"
   d=" M208.029938,182.978867   C204.586441,182.363846 201.117172,181.773300 197.262405,181.008179   C196.876892,180.833603 196.922607,180.891785 196.947174,180.915558   C196.971725,175.829773 196.971725,170.720230 196.971725,165.755783   C197.582809,165.470169 197.882111,165.194244 198.113022,165.242889   C201.264526,165.907013 206.130630,165.667572 207.155914,167.531296   C208.785339,170.493195 207.861313,174.865631 207.992920,178.642273   C208.033188,179.798050 207.993332,180.956604 207.972687,182.584320   C207.955200,183.054749 208.004196,183.003326 208.029938,182.978867  z"
   id="path50" />
<path
   fill="#000000"
   opacity="1.000000"
   stroke="none"
   d=" M186.938934,377.951141   C188.281204,383.458038 189.623474,388.964935 191.013977,394.669708   C175.093384,396.839203 159.405914,398.976929 143.283005,401.174011   C141.912201,395.268707 140.614212,389.677185 139.207657,383.617859   C155.116425,381.721222 170.657806,379.868378 186.598999,378.011780   C186.998810,378.007996 186.938934,377.951141 186.938934,377.951141  z"
   id="path51" />
<path
   fill="#000000"
   opacity="1.000000"
   stroke="none"
   d=" M242.362762,387.966064   C232.586594,389.175171 223.226654,390.360046 213.044342,391.649017   C211.869965,386.798798 210.601044,381.558075 209.161316,375.611908   C219.313629,374.473938 229.267761,373.358185 240.107910,372.143127   C240.978119,377.290222 241.878540,382.616028 242.362762,387.966064  z"
   id="path52" />
<path
   fill="#030302"
   opacity="1.000000"
   stroke="none"
   d=" M101.930923,452.511414   C96.854332,454.003021 91.779495,455.123535 85.989975,456.401825   C85.989975,447.325562 85.989685,438.883362 85.990074,430.441132   C85.990295,425.613037 85.761063,420.766907 86.136208,415.968079   C86.245453,414.570709 88.082008,413.308380 89.536980,412.030823   C90.911850,416.812164 91.876534,421.546875 92.997452,426.649078   C96.080009,435.391144 99.006348,443.765717 101.930923,452.511414  z"
   id="path53" />
<path
   fill="#000000"
   opacity="1.000000"
   stroke="none"
   d=" M187.027283,378.037903   C186.074783,374.130615 184.979324,370.217377 184.148590,366.248779   C183.468002,362.997528 184.146439,360.906891 188.334534,360.906433   C194.047195,360.905792 199.759781,360.241425 205.382614,359.867554   C206.668716,365.430450 207.829391,370.450775 209.018021,375.592041   C201.786041,376.410370 194.801010,377.200745 187.377457,377.971130   C186.938934,377.951141 186.998810,378.007996 187.027283,378.037903  z"
   id="path54" />
<path
   fill="#000000"
   opacity="1.000000"
   stroke="none"
   d=" M165.943359,311.953979   C166.307159,317.357849 166.670959,322.761719 167.074951,328.762787   C162.037704,329.186096 157.199524,329.655518 152.351791,329.983978   C146.443649,330.384308 140.522202,330.594055 134.616806,331.026825   C131.207642,331.276611 129.764328,330.029877 129.949142,326.489990   C130.170563,322.248840 130.001434,317.987335 130.001434,313.362030   C141.196823,312.931580 153.157471,312.471680 165.557571,312.008392   C165.997025,312.005005 165.943359,311.953979 165.943359,311.953979  z"
   id="path55" />
<path
   fill="#000000"
   opacity="1.000000"
   stroke="none"
   d=" M219.942520,310.953308   C220.293716,315.042603 220.933701,319.139526 220.826553,323.216766   C220.792801,324.501343 218.836182,326.730530 217.623108,326.827972   C209.562500,327.475586 201.459961,327.577026 193.381668,328.041016   C190.305786,328.217682 189.135361,326.653717 189.050247,324.026825   C188.916626,319.903564 189.014786,315.772766 189.014786,311.011566   C199.278168,311.011566 209.191574,311.011566 219.550598,311.007935   C219.996216,311.004272 219.942520,310.953308 219.942520,310.953308  z"
   id="path56" />
<path
   fill="#000000"
   opacity="1.000000"
   stroke="none"
   d=" M166.022552,312.031799   C165.606491,306.561584 165.164886,301.064575 164.678894,295.015045   C171.918259,295.015045 178.346222,294.815704 184.739365,295.198181   C185.895020,295.267365 187.685562,297.643677 187.838013,299.096039   C188.264496,303.159332 187.986481,307.296570 187.986481,311.990631   C180.689880,311.990631 173.788696,311.990631 166.415436,311.972290   C165.943359,311.953979 165.997025,312.005005 166.022552,312.031799  z"
   id="path57" />
<path
   fill="#000000"
   opacity="1.000000"
   stroke="none"
   d=" M220.021713,311.031067   C219.713959,305.873535 219.380692,300.689178 219.030518,295.241821   C222.426254,295.241821 225.350021,295.241821 228.681381,295.241821   C229.205093,299.897217 229.727493,304.541046 230.271057,309.373016   C226.795715,309.964111 223.794128,310.474609 220.367523,310.969238   C219.942520,310.953308 219.996216,311.004272 220.021713,311.031067  z"
   id="path58" />
<path
   fill="#7E7E7E"
   opacity="1.000000"
   stroke="none"
   d=" M77.988373,350.581696   C74.417015,349.110718 73.842171,345.477722 76.653687,340.168396   C77.324745,343.387970 77.652122,346.775696 77.988373,350.581696  z"
   id="path59" />
<path
   fill="#7E7E7E"
   opacity="1.000000"
   stroke="none"
   d=" M76.988441,334.581696   C73.453682,332.659668 72.910980,329.216217 75.656616,324.165497   C76.324776,327.387970 76.652153,330.775665 76.988441,334.581696  z"
   id="path60" />
<path
   fill="#000000"
   opacity="1.000000"
   stroke="none"
   d=" M148.259537,474.334106   C141.897598,475.916534 135.894836,477.382446 129.826523,478.489014   C128.699631,478.694519 126.520477,477.759766 126.160316,476.833069   C121.934738,465.960693 117.963913,454.989319 113.576805,443.097931   C122.702042,441.409485 131.514236,439.778992 140.526230,438.111511   C144.928467,449.598877 149.328384,461.080200 153.841553,472.857025   C152.042755,473.281097 150.319427,473.687378 148.259537,474.334106  z"
   id="path61" />
<path
   fill="#000000"
   opacity="1.000000"
   stroke="none"
   d=" M185.053986,448.041992   C182.740417,442.503723 180.426849,436.965485 178.157425,431.532898   C193.159256,428.715118 207.864410,425.950714 222.571793,423.198181   C223.216949,423.077454 223.881165,423.046631 224.538467,423.004669   C227.712418,422.802002 231.820099,421.313049 233.818909,422.751129   C236.175339,424.446472 236.699463,428.682007 238.031708,431.810333   C238.663498,433.293854 239.327103,434.763855 240.215790,436.784576   C229.829849,438.890686 219.696640,440.928345 209.571289,443.004333   C201.623611,444.633881 193.685684,446.310944 185.365402,447.972717   C184.987381,447.978577 185.053986,448.041992 185.053986,448.041992  z"
   id="path62" />
<path
   fill="#000000"
   opacity="1.000000"
   stroke="none"
   d=" M184.955521,447.945435   C186.997665,453.315308 189.071671,458.718323 191.336624,464.618805   C183.680984,466.445648 176.387634,468.368622 168.992538,469.745117   C167.937241,469.941559 165.842407,467.732788 165.174469,466.219696   C163.351944,462.091095 162.035385,457.739197 160.322113,452.924103   C168.234543,451.296967 176.228592,449.653046 184.638306,448.025574   C185.053986,448.041992 184.987381,447.978577 184.955521,447.945435  z"
   id="path63" />
<path
   fill="#000000"
   opacity="1.000000"
   stroke="none"
   d=" M243.001831,443.023010   C240.023773,437.147430 240.040375,437.222168 245.884598,435.924408   C249.521332,435.116821 253.056564,433.687286 256.722290,433.251831   C258.309753,433.063293 260.949036,434.230072 261.657043,435.556854   C263.700714,439.386658 265.005341,443.610840 266.627716,447.750397   C260.947174,449.104187 255.301025,450.576660 249.585739,451.696320   C248.542419,451.900696 246.735641,450.978912 246.121796,450.032074   C244.813248,448.013611 244.056107,445.637634 243.001831,443.023010  z"
   id="path64" />
<path
   fill="#000000"
   opacity="1.000000"
   stroke="none"
   d=" M87.734283,542.903687   C86.868652,541.664551 86.068283,540.414917 86.058098,539.158875   C85.962196,527.336731 86.058411,515.513000 85.960739,503.690918   C85.936584,500.766510 86.582634,499.394745 89.921341,498.786438   C97.574715,497.391998 105.094948,495.266785 112.872566,493.389191   C112.872566,507.567749 112.872566,521.369202 112.872566,535.497375   C104.644371,537.959473 96.405251,540.424866 87.734283,542.903687  z"
   id="path65" />
<path
   fill="#868380"
   opacity="1.000000"
   stroke="none"
   d=" M71.864113,561.934631   C71.724472,561.948792 71.528687,561.727600 71.290588,561.267090   C71.427689,561.259705 71.614258,561.483521 71.864113,561.934631  z"
   id="path66" />
</svg>
